<mxfile host="app.diagrams.net" modified="2023-03-25T13:13:56.472Z" agent="Mozilla/5.0 (Windows NT 6.3; Win64; x64) AppleWebKit/537.36 (KHTML, like Gecko) Chrome/109.0.0.0 Safari/537.36" etag="t8Gt9oOkGIqwDTtgsTt3" version="21.1.1" type="github">
  <diagram id="C5RBs43oDa-KdzZeNtuy" name="Page-1">
    <mxGraphModel dx="407" dy="789" grid="1" gridSize="10" guides="1" tooltips="1" connect="1" arrows="1" fold="1" page="1" pageScale="1" pageWidth="827" pageHeight="1169" math="0" shadow="0">
      <root>
        <mxCell id="WIyWlLk6GJQsqaUBKTNV-0" />
        <mxCell id="WIyWlLk6GJQsqaUBKTNV-1" parent="WIyWlLk6GJQsqaUBKTNV-0" />
        <mxCell id="gu9UYb22f47Sbi6Y1eUK-24" style="edgeStyle=orthogonalEdgeStyle;rounded=0;orthogonalLoop=1;jettySize=auto;html=1;exitX=0.5;exitY=1;exitDx=0;exitDy=0;entryX=0.5;entryY=0;entryDx=0;entryDy=0;" edge="1" parent="WIyWlLk6GJQsqaUBKTNV-1" source="gu9UYb22f47Sbi6Y1eUK-0" target="gu9UYb22f47Sbi6Y1eUK-23">
          <mxGeometry relative="1" as="geometry" />
        </mxCell>
        <mxCell id="gu9UYb22f47Sbi6Y1eUK-0" value="input: n" style="shape=parallelogram;perimeter=parallelogramPerimeter;whiteSpace=wrap;html=1;fixedSize=1;" vertex="1" parent="WIyWlLk6GJQsqaUBKTNV-1">
          <mxGeometry x="200" y="130" width="120" height="60" as="geometry" />
        </mxCell>
        <mxCell id="gu9UYb22f47Sbi6Y1eUK-26" style="edgeStyle=orthogonalEdgeStyle;rounded=0;orthogonalLoop=1;jettySize=auto;html=1;exitX=0;exitY=0.5;exitDx=0;exitDy=0;entryX=0.5;entryY=0;entryDx=0;entryDy=0;" edge="1" parent="WIyWlLk6GJQsqaUBKTNV-1" source="gu9UYb22f47Sbi6Y1eUK-5" target="gu9UYb22f47Sbi6Y1eUK-6">
          <mxGeometry relative="1" as="geometry" />
        </mxCell>
        <mxCell id="gu9UYb22f47Sbi6Y1eUK-27" style="edgeStyle=orthogonalEdgeStyle;rounded=0;orthogonalLoop=1;jettySize=auto;html=1;exitX=1;exitY=0.5;exitDx=0;exitDy=0;" edge="1" parent="WIyWlLk6GJQsqaUBKTNV-1" source="gu9UYb22f47Sbi6Y1eUK-5" target="gu9UYb22f47Sbi6Y1eUK-7">
          <mxGeometry relative="1" as="geometry" />
        </mxCell>
        <mxCell id="gu9UYb22f47Sbi6Y1eUK-5" value="r == 0" style="rhombus;whiteSpace=wrap;html=1;" vertex="1" parent="WIyWlLk6GJQsqaUBKTNV-1">
          <mxGeometry x="220" y="300" width="80" height="80" as="geometry" />
        </mxCell>
        <mxCell id="gu9UYb22f47Sbi6Y1eUK-28" style="edgeStyle=orthogonalEdgeStyle;rounded=0;orthogonalLoop=1;jettySize=auto;html=1;entryX=0.5;entryY=0;entryDx=0;entryDy=0;" edge="1" parent="WIyWlLk6GJQsqaUBKTNV-1" source="gu9UYb22f47Sbi6Y1eUK-6" target="gu9UYb22f47Sbi6Y1eUK-18">
          <mxGeometry relative="1" as="geometry" />
        </mxCell>
        <mxCell id="gu9UYb22f47Sbi6Y1eUK-6" value="print &quot;is even&quot;" style="shape=parallelogram;perimeter=parallelogramPerimeter;whiteSpace=wrap;html=1;fixedSize=1;" vertex="1" parent="WIyWlLk6GJQsqaUBKTNV-1">
          <mxGeometry x="95" y="410" width="120" height="60" as="geometry" />
        </mxCell>
        <mxCell id="gu9UYb22f47Sbi6Y1eUK-30" style="edgeStyle=orthogonalEdgeStyle;rounded=0;orthogonalLoop=1;jettySize=auto;html=1;exitX=0.5;exitY=1;exitDx=0;exitDy=0;entryX=0.5;entryY=0;entryDx=0;entryDy=0;" edge="1" parent="WIyWlLk6GJQsqaUBKTNV-1" source="gu9UYb22f47Sbi6Y1eUK-7" target="gu9UYb22f47Sbi6Y1eUK-18">
          <mxGeometry relative="1" as="geometry" />
        </mxCell>
        <mxCell id="gu9UYb22f47Sbi6Y1eUK-7" value="print &quot;is odd&quot;" style="shape=parallelogram;perimeter=parallelogramPerimeter;whiteSpace=wrap;html=1;fixedSize=1;" vertex="1" parent="WIyWlLk6GJQsqaUBKTNV-1">
          <mxGeometry x="305" y="410" width="120" height="60" as="geometry" />
        </mxCell>
        <mxCell id="gu9UYb22f47Sbi6Y1eUK-11" value="true" style="text;html=1;strokeColor=none;fillColor=none;align=center;verticalAlign=middle;whiteSpace=wrap;rounded=0;" vertex="1" parent="WIyWlLk6GJQsqaUBKTNV-1">
          <mxGeometry x="160" y="310" width="60" height="30" as="geometry" />
        </mxCell>
        <mxCell id="gu9UYb22f47Sbi6Y1eUK-15" value="false" style="text;html=1;strokeColor=none;fillColor=none;align=center;verticalAlign=middle;whiteSpace=wrap;rounded=0;" vertex="1" parent="WIyWlLk6GJQsqaUBKTNV-1">
          <mxGeometry x="300" y="310" width="60" height="30" as="geometry" />
        </mxCell>
        <mxCell id="gu9UYb22f47Sbi6Y1eUK-21" style="edgeStyle=orthogonalEdgeStyle;rounded=0;orthogonalLoop=1;jettySize=auto;html=1;exitX=0.5;exitY=1;exitDx=0;exitDy=0;entryX=0.5;entryY=0;entryDx=0;entryDy=0;" edge="1" parent="WIyWlLk6GJQsqaUBKTNV-1" source="gu9UYb22f47Sbi6Y1eUK-17" target="gu9UYb22f47Sbi6Y1eUK-0">
          <mxGeometry relative="1" as="geometry" />
        </mxCell>
        <mxCell id="gu9UYb22f47Sbi6Y1eUK-17" value="start" style="rounded=1;whiteSpace=wrap;html=1;" vertex="1" parent="WIyWlLk6GJQsqaUBKTNV-1">
          <mxGeometry x="200" y="40" width="120" height="60" as="geometry" />
        </mxCell>
        <mxCell id="gu9UYb22f47Sbi6Y1eUK-18" value="end" style="rounded=1;whiteSpace=wrap;html=1;" vertex="1" parent="WIyWlLk6GJQsqaUBKTNV-1">
          <mxGeometry x="210" y="540" width="120" height="60" as="geometry" />
        </mxCell>
        <mxCell id="gu9UYb22f47Sbi6Y1eUK-25" style="edgeStyle=orthogonalEdgeStyle;rounded=0;orthogonalLoop=1;jettySize=auto;html=1;exitX=0.5;exitY=1;exitDx=0;exitDy=0;" edge="1" parent="WIyWlLk6GJQsqaUBKTNV-1" source="gu9UYb22f47Sbi6Y1eUK-23" target="gu9UYb22f47Sbi6Y1eUK-5">
          <mxGeometry relative="1" as="geometry" />
        </mxCell>
        <mxCell id="gu9UYb22f47Sbi6Y1eUK-23" value="r = n mod 2" style="rounded=0;whiteSpace=wrap;html=1;" vertex="1" parent="WIyWlLk6GJQsqaUBKTNV-1">
          <mxGeometry x="200" y="220" width="120" height="60" as="geometry" />
        </mxCell>
      </root>
    </mxGraphModel>
  </diagram>
</mxfile>
